<svg xmlns:inkscape="http://www.inkscape.org/namespaces/inkscape" xmlns:sodipodi="http://sodipodi.sourceforge.net/DTD/sodipodi-0.dtd" xmlns="http://www.w3.org/2000/svg" xmlns:svg="http://www.w3.org/2000/svg" version="1.1" id="svg5" inkscape:version="1.1.2 (1:1.1+202202050950+0a00cf5339)" sodipodi:docname="sun.svg" viewBox="5.55 37.84 211.41 210.87">
  <sodipodi:namedview id="namedview7" pagecolor="#505050" bordercolor="#eeeeee" borderopacity="1" inkscape:pageshadow="0" inkscape:pageopacity="0" inkscape:pagecheckerboard="0" inkscape:document-units="mm" showgrid="true" inkscape:zoom="0.68862935" inkscape:cx="397.16576" inkscape:cy="561.25984" inkscape:window-width="1920" inkscape:window-height="995" inkscape:window-x="0" inkscape:window-y="0" inkscape:window-maximized="1" inkscape:current-layer="layer1">
    <inkscape:grid type="xygrid" id="grid1262"/>
  </sodipodi:namedview>
  <defs id="defs2"/>
  <g inkscape:label="Layer 1" inkscape:groupmode="layer" id="layer1">
    <ellipse style="fill: rgb(255, 204, 32); fill-opacity: 1; fill-rule: evenodd; stroke-width: 0.265; stroke-miterlimit: 4; stroke-dasharray: none; --darkreader-inline-fill:#ffd030;" id="path31" cx="111.0313" cy="143.88414" rx="55.133686" ry="55.326546" data-darkreader-inline-fill=""/>
    <rect style="fill: rgb(255, 204, 32); fill-opacity: 1; stroke-width: 0.264999; stroke-miterlimit: 4; stroke-dasharray: none; --darkreader-inline-fill:#ffd030;" id="rect1158" width="7.3166389" height="44.954926" x="106.97901" y="37.840904" data-darkreader-inline-fill=""/>
    <rect style="fill: rgb(255, 204, 32); fill-opacity: 1; stroke-width: 0.264999; stroke-miterlimit: 4; stroke-dasharray: none; --darkreader-inline-fill:#ffd030;" id="rect1174" width="7.3166389" height="44.954926" x="169.42322" y="-101.81261" transform="rotate(51.23624)" data-darkreader-inline-fill=""/>
    <rect style="fill: rgb(255, 204, 32); fill-opacity: 1; stroke-width: 0.264999; stroke-miterlimit: 4; stroke-dasharray: none; --darkreader-inline-fill:#ffd030;" id="rect1258" width="7.3166389" height="44.954926" x="143.00948" y="-215.46771" transform="rotate(89.427757)" data-darkreader-inline-fill=""/>
    <rect style="fill: rgb(255, 204, 32); fill-opacity: 1; stroke-width: 0.264999; stroke-miterlimit: 4; stroke-dasharray: none; --darkreader-inline-fill:#ffd030;" id="rect1260" width="7.3166389" height="44.954926" x="140.67747" y="-49.097881" transform="rotate(89.427757)" data-darkreader-inline-fill=""/>
    <rect style="fill: rgb(255, 204, 32); fill-opacity: 1; stroke-width: 0.264999; stroke-miterlimit: 4; stroke-dasharray: none; --darkreader-inline-fill:#ffd030;" id="rect1470" width="7.3166389" height="44.954926" x="46.537388" y="-281.94543" transform="rotate(127.60631)" data-darkreader-inline-fill=""/>
    <rect style="fill: rgb(255, 204, 32); fill-opacity: 1; stroke-width: 0.264999; stroke-miterlimit: 4; stroke-dasharray: none; --darkreader-inline-fill:#ffd030;" id="rect1472" width="7.3166389" height="44.954926" x="109.10003" y="203.7534" data-darkreader-inline-fill=""/>
    <rect style="fill: rgb(255, 204, 32); fill-opacity: 1; stroke-width: 0.264999; stroke-miterlimit: 4; stroke-dasharray: none; --darkreader-inline-fill:#ffd030;" id="rect1474" width="7.3166389" height="44.954926" x="184.29391" y="65.634888" transform="rotate(51.23624)" data-darkreader-inline-fill=""/>
    <rect style="fill: rgb(255, 204, 32); fill-opacity: 1; stroke-width: 0.264999; stroke-miterlimit: 4; stroke-dasharray: none; --darkreader-inline-fill:#ffd030;" id="rect1558" width="7.3166389" height="44.954926" x="31.99896" y="-115.31604" transform="rotate(127.60631)" data-darkreader-inline-fill=""/>
    <path style="fill: rgb(0, 0, 0); fill-opacity: 1; stroke-width: 0.264999; stroke-miterlimit: 4; stroke-dasharray: none; --darkreader-inline-fill:#e8e6e3;" id="path1724" d="m 118.03295,128.1392 c 1.39188,-0.44782 2.78279,-0.85874 4.2036,-1.21015 1.21814,-0.34647 2.47912,-0.45592 3.69533,-0.80305 1.18149,-0.39505 2.41987,-0.50888 3.6552,-0.58431 1.14653,-0.056 2.29477,-0.0559 3.44236,-0.0537 1.21681,0.002 2.43362,2.3e-4 3.65044,5.3e-4 1.10178,0.0105 2.17287,0.22826 3.24308,0.46112 1.01998,0.2096 1.99565,0.64183 2.95204,1.05036 0.78447,0.46399 1.49056,1.03742 2.20519,1.59858 0,0 3.31684,-2.09119 3.31684,-2.09119 v 0 c -0.74657,-0.56766 -1.48095,-1.14895 -2.25849,-1.67497 -0.54545,-0.25451 -1.10048,-0.45525 -1.65548,-0.68643 -0.28739,-0.11971 -0.5606,-0.2782 -0.8593,-0.36594 -0.15149,-0.0445 -0.31142,-0.0523 -0.46713,-0.0784 -1.09636,-0.22497 -2.18124,-0.48558 -3.30835,-0.5147 -1.21245,-0.002 -2.42487,-0.007 -3.63732,-0.0103 -1.15556,0.001 -2.31174,-0.005 -3.46654,0.0437 -1.24488,0.0641 -2.50684,0.12706 -3.70329,0.50785 -0.36566,0.11047 -0.72193,0.25655 -1.0955,0.33629 -0.86247,0.18412 -1.76937,0.19168 -2.61095,0.49173 -0.78974,0.21201 -1.60674,0.34014 -2.38757,0.58194 -0.42468,0.13151 -0.82015,0.34793 -1.2458,0.47628 -0.17349,0.0523 -0.35478,0.074 -0.53217,0.11098 0,0 -3.13619,2.41361 -3.13619,2.41361 z" data-darkreader-inline-fill=""/>
    <path style="fill: rgb(0, 0, 0); fill-opacity: 1; stroke-width: 0.264999; stroke-miterlimit: 4; stroke-dasharray: none; --darkreader-inline-fill:#e8e6e3;" id="path2928" d="m 104.21705,128.1392 c -1.39188,-0.44782 -2.78279,-0.85874 -4.2036,-1.21015 -1.218137,-0.34647 -2.479117,-0.45592 -3.695327,-0.80305 -1.18149,-0.39505 -2.41987,-0.50888 -3.6552,-0.58431 -1.14653,-0.056 -2.29477,-0.0559 -3.44236,-0.0537 -1.21681,0.002 -2.43362,2.3e-4 -3.65044,5.3e-4 -1.10178,0.0105 -2.17287,0.22826 -3.24308,0.46112 -1.01998,0.2096 -1.99565,0.64183 -2.952043,1.05036 -0.78447,0.46399 -1.49056,1.03742 -2.20519,1.59858 0,0 -3.31684,-2.09119 -3.31684,-2.09119 v 0 c 0.74657,-0.56766 1.48095,-1.14895 2.25849,-1.67497 0.54545,-0.25451 1.10048,-0.45525 1.65548,-0.68643 0.28739,-0.11971 0.5606,-0.2782 0.8593,-0.36594 0.15149,-0.0445 0.31142,-0.0523 0.46713,-0.0784 1.096363,-0.22497 2.181243,-0.48558 3.308353,-0.5147 1.21245,-0.002 2.42487,-0.007 3.63732,-0.0103 1.15556,0.001 2.31174,-0.005 3.46654,0.0437 1.24488,0.0641 2.50684,0.12706 3.70329,0.50785 0.36566,0.11047 0.72193,0.25655 1.0955,0.33629 0.86247,0.18412 1.76937,0.19168 2.61095,0.49173 0.78974,0.21201 1.60674,0.34014 2.38757,0.58194 0.42468,0.13151 0.820147,0.34793 1.245797,0.47628 0.17349,0.0523 0.35478,0.074 0.53217,0.11098 0,0 3.13619,2.41361 3.13619,2.41361 z" data-darkreader-inline-fill=""/>
    <path style="fill: rgb(0, 0, 0); fill-opacity: 1; stroke-width: 0.264999; stroke-miterlimit: 4; stroke-dasharray: none; --darkreader-inline-fill:#e8e6e3;" id="path2967" d="m 115.17442,155.80691 c -1.9157,0.51356 -3.62203,1.71388 -5.2187,2.81625 -0.15513,0.1071 -0.44455,0.91585 -0.50331,1.06531 -0.33918,1.14775 -0.37532,2.34613 -0.39193,3.53348 -0.0451,1.05637 0.36008,2.10317 1.06247,2.88437 0.82152,0.78502 1.90771,1.0002 2.9957,1.12844 0.77423,0.0852 1.469,-0.1086 2.12757,-0.50657 3.77006,-2.27821 2.675,-1.30948 4.0875,-2.6132 0.67905,-0.7108 0.80615,-1.67699 0.89377,-2.61353 0.12692,-1.6828 -0.51504,-2.72251 -1.55044,-3.98104 -0.90712,-1.13537 -2.11863,-1.87932 -3.44465,-2.42371 -1.8518,-0.30625 -2.94707,1.1018 -4.67556,2.21635 -0.14245,0.0919 -0.20439,0.27052 -0.31029,0.40287 -0.10073,0.12589 -0.20632,0.24781 -0.30949,0.37172 0,0 3.6266,-1.53751 3.6266,-1.53751 v 0 c 0.104,-0.12079 0.20259,-0.24644 0.31199,-0.36235 0.10917,-0.11567 0.4854,-0.40253 0.34301,-0.33166 -1.02793,0.5116 -2.01,1.11062 -3.01691,1.66246 -0.11239,0.0616 0.21063,-0.15455 0.33329,-0.19168 0.14063,-0.0426 0.29253,-0.028 0.43878,-0.042 1.29412,0.47108 2.48245,1.1555 3.36033,2.24306 0.98852,1.16532 1.551,2.15453 1.36485,3.72358 -0.11054,0.88941 -0.30271,1.73936 -1.01349,2.35184 -1.21284,1.06029 -0.45111,0.35097 2.62381,-1.34743 0.14622,-0.0808 -0.29014,0.16566 -0.43359,0.25124 -0.50505,0.30132 -0.94359,0.52161 -1.55955,0.4551 -1.00112,-0.0914 -2.04026,-0.21483 -2.82521,-0.90624 -0.67887,-0.6793 -0.97228,-1.661 -0.92858,-2.60996 0.0278,-1.14334 0.0578,-2.30735 0.4612,-3.39248 0.0825,-0.1635 0.14758,-0.33705 0.24756,-0.4905 0.0961,-0.14747 0.49616,-0.48152 0.3369,-0.40657 -5.86875,2.7617 -2.92426,1.65919 -1.6029,1.02241 0,0 3.16927,-2.37201 3.16927,-2.37201 z" data-darkreader-inline-fill=""/>
    <circle id="path2971" style="fill: rgb(0, 0, 0); stroke: rgb(0, 0, 0); stroke-width: 0.264583; --darkreader-inline-fill:#e8e6e3; --darkreader-inline-stroke:#e8e6e3;" cx="114.67837" cy="161.9431" r="0.051257968" data-darkreader-inline-fill="" data-darkreader-inline-stroke=""/>
    <circle id="path2973" style="fill: rgb(0, 0, 0); stroke: rgb(0, 0, 0); stroke-width: 0.264583; --darkreader-inline-fill:#e8e6e3; --darkreader-inline-stroke:#e8e6e3;" cx="114.67837" cy="161.9431" r="0.051257968" data-darkreader-inline-fill="" data-darkreader-inline-stroke=""/>
    <circle id="path2975" style="fill: rgb(0, 0, 0); stroke: rgb(0, 0, 0); stroke-width: 0.264583; --darkreader-inline-fill:#e8e6e3; --darkreader-inline-stroke:#e8e6e3;" cx="115.82652" cy="161.17017" r="0.051257968" data-darkreader-inline-fill="" data-darkreader-inline-stroke=""/>
    <circle id="path2977" style="fill: rgb(0, 0, 0); stroke: rgb(0, 0, 0); stroke-width: 0.264583; --darkreader-inline-fill:#e8e6e3; --darkreader-inline-stroke:#e8e6e3;" cx="115.82652" cy="161.17017" r="0.051257968" data-darkreader-inline-fill="" data-darkreader-inline-stroke=""/>
    <circle id="path2979" style="fill: rgb(0, 0, 0); stroke: rgb(0, 0, 0); stroke-width: 0.264583; --darkreader-inline-fill:#e8e6e3; --darkreader-inline-stroke:#e8e6e3;" cx="115.06108" cy="163.47546" r="0.051257968" data-darkreader-inline-fill="" data-darkreader-inline-stroke=""/>
    <circle id="path2981" style="fill: rgb(0, 0, 0); stroke: rgb(0, 0, 0); stroke-width: 0.264583; --darkreader-inline-fill:#e8e6e3; --darkreader-inline-stroke:#e8e6e3;" cx="115.06108" cy="163.47546" r="0.051257968" data-darkreader-inline-fill="" data-darkreader-inline-stroke=""/>
    <circle style="fill: rgb(0, 0, 0); fill-opacity: 1; stroke-width: 0.264999; stroke-miterlimit: 4; stroke-dasharray: none; --darkreader-inline-fill:#e8e6e3;" id="path3015" cx="114.21522" cy="161.86594" r="2.6458333" data-darkreader-inline-fill=""/>
  </g>
</svg>